# MagicaVoxel @ Ephtracy

# group
o 

# material
mtllib TableProp.mtl
usemtl palette

# normals
vn -1 0 0
vn 1 0 0
vn 0 0 1
vn 0 0 -1
vn 0 -1 0
vn 0 1 0

# texcoords
vt 0.279297 0.5
vt 0.310547 0.5
vt 0.341797 0.5

# verts
v -1.4 1 1.2
v -1.4 1 1
v -1.4 1 0.9
v -1.4 1 0.8
v -1.4 1 0.6
v -1.4 1 0.5
v -1.4 1 0.4
v -1.4 1 0.2
v -1.4 1 0.0999999
v -1.4 1 -1.19209e-07
v -1.4 1 -0.2
v -1.4 1 -0.3
v -1.4 1 -0.4
v -1.4 1 -0.6
v -1.4 1 -0.7
v -1.4 1 -0.8
v -1.4 1 -1
v -1.4 1 -1.1
v -1.4 1 -1.2
v -1.4 1.1 1.2
v -1.4 1.1 1
v -1.4 1.1 0.9
v -1.4 1.1 0.8
v -1.4 1.1 0.6
v -1.4 1.1 0.5
v -1.4 1.1 0.4
v -1.4 1.1 0.2
v -1.4 1.1 0.0999999
v -1.4 1.1 -1.19209e-07
v -1.4 1.1 -0.2
v -1.4 1.1 -0.3
v -1.4 1.1 -0.4
v -1.4 1.1 -0.6
v -1.4 1.1 -0.7
v -1.4 1.1 -0.8
v -1.4 1.1 -1
v -1.4 1.1 -1.1
v -1.4 1.1 -1.2
v -1.2 0 1
v -1.2 0 0.8
v -1.2 0 -0.8
v -1.2 0 -1
v -1.2 1 1
v -1.2 1 0.9
v -1.2 1 0.8
v -1.2 1 -0.8
v -1.2 1 -1
v 1 0 1
v 1 0 0.8
v 1 0 -0.8
v 1 0 -1
v 1 1 1
v 1 1 0.9
v 1 1 0.8
v 1 1 -0.8
v 1 1 -0.9
v 1 1 -1
v -1 0 1
v -1 0 0.8
v -1 0 -0.8
v -1 0 -1
v -1 1 1
v -1 1 0.9
v -1 1 0.8
v -1 1 -0.8
v -1 1 -1
v 1.2 0 1
v 1.2 0 0.8
v 1.2 0 -0.8
v 1.2 0 -1
v 1.2 1 1
v 1.2 1 0.9
v 1.2 1 0.8
v 1.2 1 -0.8
v 1.2 1 -0.9
v 1.2 1 -1
v 1.4 1 1.2
v 1.4 1 1.1
v 1.4 1 1
v 1.4 1 0.9
v 1.4 1 0.8
v 1.4 1 0.7
v 1.4 1 0.6
v 1.4 1 0.4
v 1.4 1 0.3
v 1.4 1 0.2
v 1.4 1 -1.19209e-07
v 1.4 1 -0.1
v 1.4 1 -0.2
v 1.4 1 -0.5
v 1.4 1 -0.6
v 1.4 1 -0.7
v 1.4 1 -0.8
v 1.4 1 -0.9
v 1.4 1 -1
v 1.4 1 -1.2
v 1.4 1.1 1.2
v 1.4 1.1 1.1
v 1.4 1.1 1
v 1.4 1.1 0.9
v 1.4 1.1 0.8
v 1.4 1.1 0.7
v 1.4 1.1 0.6
v 1.4 1.1 0.4
v 1.4 1.1 0.3
v 1.4 1.1 0.2
v 1.4 1.1 -1.19209e-07
v 1.4 1.1 -0.1
v 1.4 1.1 -0.2
v 1.4 1.1 -0.5
v 1.4 1.1 -0.6
v 1.4 1.1 -0.7
v 1.4 1.1 -0.8
v 1.4 1.1 -0.9
v 1.4 1.1 -1
v 1.4 1.1 -1.2
v -1.4 1 1.2
v -1.4 1.1 1.2
v 1.4 1 1.2
v 1.4 1.1 1.2
v -1.2 0 1
v -1.2 1 1
v -1 0 1
v -1 1 1
v 1 0 1
v 1 1 1
v 1.2 0 1
v 1.2 1 1
v -1.2 0 -0.8
v -1.2 1 -0.8
v -1 0 -0.8
v -1 1 -0.8
v 1 0 -0.8
v 1 1 -0.8
v 1.2 0 -0.8
v 1.2 1 -0.8
v -1.2 0 0.8
v -1.2 1 0.8
v -1 0 0.8
v -1 1 0.8
v 1 0 0.8
v 1 1 0.8
v 1.2 0 0.8
v 1.2 1 0.8
v -1.2 0 -1
v -1.2 1 -1
v -1 0 -1
v -1 1 -1
v 1 0 -1
v 1 1 -1
v 1.2 0 -1
v 1.2 1 -1
v -1.4 1 -1.2
v -1.4 1.1 -1.2
v 1.4 1 -1.2
v 1.4 1.1 -1.2
v -1.2 0 1
v -1 0 1
v 1 0 1
v 1.2 0 1
v -1.2 0 0.8
v -1 0 0.8
v 1 0 0.8
v 1.2 0 0.8
v -1.2 0 -0.8
v -1 0 -0.8
v 1 0 -0.8
v 1.2 0 -0.8
v -1.2 0 -1
v -1 0 -1
v 1 0 -1
v 1.2 0 -1
v -1.4 1 1.2
v 1.4 1 1.2
v 0 1 1.1
v 1.4 1 1.1
v -1.4 1 1
v -1.2 1 1
v -1 1 1
v 0 1 1
v 1 1 1
v 1.2 1 1
v 1.4 1 1
v -1.4 1 0.9
v -1.2 1 0.9
v -1 1 0.9
v 0 1 0.9
v 1 1 0.9
v 1.2 1 0.9
v 1.4 1 0.9
v -1.4 1 0.8
v -1.2 1 0.8
v -1 1 0.8
v 0 1 0.8
v 0.7 1 0.8
v 1 1 0.8
v 1.2 1 0.8
v 1.4 1 0.8
v -0.7 1 0.7
v 0.7 1 0.7
v 1.4 1 0.7
v -1.4 1 0.6
v -0.7 1 0.6
v 0.7 1 0.6
v 1.4 1 0.6
v -1.4 1 0.5
v -0.7 1 0.5
v 0.7 1 0.5
v -1.4 1 0.4
v -0.7 1 0.4
v 0.7 1 0.4
v 1.4 1 0.4
v -0.7 1 0.3
v 0.7 1 0.3
v 1.4 1 0.3
v -1.4 1 0.2
v -0.7 1 0.2
v 0.7 1 0.2
v 1.4 1 0.2
v -1.4 1 0.0999999
v -0.7 1 0.0999999
v 0.7 1 0.0999999
v -1.4 1 -1.19209e-07
v -0.7 1 -1.19209e-07
v 0.7 1 -1.19209e-07
v 1.4 1 -1.19209e-07
v -0.7 1 -0.1
v 0.7 1 -0.1
v 1.4 1 -0.1
v -1.4 1 -0.2
v -0.7 1 -0.2
v 0.7 1 -0.2
v 1.4 1 -0.2
v -1.4 1 -0.3
v -0.7 1 -0.3
v 0.7 1 -0.3
v -1.4 1 -0.4
v -0.7 1 -0.4
v 0 1 -0.5
v 1.4 1 -0.5
v -1.4 1 -0.6
v 0 1 -0.6
v 1.4 1 -0.6
v -1.4 1 -0.7
v 0 1 -0.7
v 1.4 1 -0.7
v -1.4 1 -0.8
v -1.2 1 -0.8
v -1 1 -0.8
v 0 1 -0.8
v 0.7 1 -0.8
v 1 1 -0.8
v 1.2 1 -0.8
v 1.4 1 -0.8
v -0.7 1 -0.9
v 0.7 1 -0.9
v 1 1 -0.9
v 1.2 1 -0.9
v 1.4 1 -0.9
v -1.4 1 -1
v -1.2 1 -1
v -1 1 -1
v -0.7 1 -1
v 0.7 1 -1
v 1 1 -1
v 1.2 1 -1
v 1.4 1 -1
v -1.4 1 -1.1
v 0.7 1 -1.1
v -1.4 1 -1.2
v 1.4 1 -1.2
v -1.4 1.1 1.2
v 1.4 1.1 1.2
v 0 1.1 1.1
v 1.4 1.1 1.1
v -1.4 1.1 1
v 0 1.1 1
v 1.4 1.1 1
v -1.4 1.1 0.9
v 0 1.1 0.9
v 1.4 1.1 0.9
v -1.4 1.1 0.8
v 0 1.1 0.8
v 0.7 1.1 0.8
v 1.4 1.1 0.8
v -0.7 1.1 0.7
v 0.7 1.1 0.7
v 1.4 1.1 0.7
v -1.4 1.1 0.6
v -0.7 1.1 0.6
v 0.7 1.1 0.6
v 1.4 1.1 0.6
v -1.4 1.1 0.5
v -0.7 1.1 0.5
v 0.7 1.1 0.5
v -1.4 1.1 0.4
v -0.7 1.1 0.4
v 0.7 1.1 0.4
v 1.4 1.1 0.4
v -0.7 1.1 0.3
v 0.7 1.1 0.3
v 1.4 1.1 0.3
v -1.4 1.1 0.2
v -0.7 1.1 0.2
v 0.7 1.1 0.2
v 1.4 1.1 0.2
v -1.4 1.1 0.0999999
v -0.7 1.1 0.0999999
v 0.7 1.1 0.0999999
v -1.4 1.1 -1.19209e-07
v -0.7 1.1 -1.19209e-07
v 0.7 1.1 -1.19209e-07
v 1.4 1.1 -1.19209e-07
v -0.7 1.1 -0.1
v 0.7 1.1 -0.1
v 1.4 1.1 -0.1
v -1.4 1.1 -0.2
v -0.7 1.1 -0.2
v 0.7 1.1 -0.2
v 1.4 1.1 -0.2
v -1.4 1.1 -0.3
v -0.7 1.1 -0.3
v 0.7 1.1 -0.3
v -1.4 1.1 -0.4
v -0.7 1.1 -0.4
v 0 1.1 -0.5
v 1.4 1.1 -0.5
v -1.4 1.1 -0.6
v 0 1.1 -0.6
v 1.4 1.1 -0.6
v -1.4 1.1 -0.7
v 0 1.1 -0.7
v 1.4 1.1 -0.7
v -1.4 1.1 -0.8
v 0 1.1 -0.8
v 0.7 1.1 -0.8
v 1.4 1.1 -0.8
v -0.7 1.1 -0.9
v 0.7 1.1 -0.9
v 1.4 1.1 -0.9
v -1.4 1.1 -1
v -0.7 1.1 -1
v 0.7 1.1 -1
v 1.4 1.1 -1
v -1.4 1.1 -1.1
v 0.7 1.1 -1.1
v -1.4 1.1 -1.2
v 1.4 1.1 -1.2

# faces
f 20/3/1 2/3/1 1/3/1
f 21/1/1 3/1/1 2/1/1
f 21/3/1 2/3/1 20/3/1
f 22/2/1 4/2/1 3/2/1
f 22/1/1 3/1/1 21/1/1
f 23/3/1 5/3/1 4/3/1
f 23/2/1 4/2/1 22/2/1
f 24/1/1 6/1/1 5/1/1
f 24/3/1 5/3/1 23/3/1
f 25/2/1 7/2/1 6/2/1
f 25/1/1 6/1/1 24/1/1
f 26/3/1 8/3/1 7/3/1
f 26/2/1 7/2/1 25/2/1
f 27/1/1 9/1/1 8/1/1
f 27/3/1 8/3/1 26/3/1
f 28/2/1 10/2/1 9/2/1
f 28/1/1 9/1/1 27/1/1
f 29/3/1 11/3/1 10/3/1
f 29/2/1 10/2/1 28/2/1
f 30/1/1 12/1/1 11/1/1
f 30/3/1 11/3/1 29/3/1
f 31/2/1 13/2/1 12/2/1
f 31/1/1 12/1/1 30/1/1
f 32/3/1 14/3/1 13/3/1
f 32/2/1 13/2/1 31/2/1
f 33/1/1 15/1/1 14/1/1
f 33/3/1 14/3/1 32/3/1
f 34/2/1 16/2/1 15/2/1
f 34/1/1 15/1/1 33/1/1
f 35/3/1 17/3/1 16/3/1
f 35/2/1 16/2/1 34/2/1
f 36/2/1 18/2/1 17/2/1
f 36/3/1 17/3/1 35/3/1
f 37/3/1 19/3/1 18/3/1
f 37/2/1 18/2/1 36/2/1
f 38/3/1 19/3/1 37/3/1
f 43/3/1 40/3/1 39/3/1
f 44/3/1 40/3/1 43/3/1
f 45/3/1 40/3/1 44/3/1
f 46/3/1 42/3/1 41/3/1
f 47/3/1 42/3/1 46/3/1
f 52/3/1 49/3/1 48/3/1
f 53/3/1 49/3/1 52/3/1
f 54/3/1 49/3/1 53/3/1
f 55/3/1 51/3/1 50/3/1
f 56/3/1 51/3/1 55/3/1
f 57/3/1 51/3/1 56/3/1
f 58/3/2 59/3/2 62/3/2
f 62/3/2 59/3/2 63/3/2
f 63/3/2 59/3/2 64/3/2
f 60/3/2 61/3/2 65/3/2
f 65/3/2 61/3/2 66/3/2
f 67/3/2 68/3/2 71/3/2
f 71/3/2 68/3/2 72/3/2
f 72/3/2 68/3/2 73/3/2
f 69/3/2 70/3/2 74/3/2
f 74/3/2 70/3/2 75/3/2
f 75/3/2 70/3/2 76/3/2
f 77/3/2 78/3/2 97/3/2
f 78/1/2 79/1/2 98/1/2
f 97/3/2 78/3/2 98/3/2
f 79/2/2 80/2/2 99/2/2
f 98/1/2 79/1/2 99/1/2
f 80/3/2 81/3/2 100/3/2
f 99/2/2 80/2/2 100/2/2
f 81/1/2 82/1/2 101/1/2
f 100/3/2 81/3/2 101/3/2
f 82/2/2 83/2/2 102/2/2
f 101/1/2 82/1/2 102/1/2
f 83/3/2 84/3/2 103/3/2
f 102/2/2 83/2/2 103/2/2
f 84/1/2 85/1/2 104/1/2
f 103/3/2 84/3/2 104/3/2
f 85/2/2 86/2/2 105/2/2
f 104/1/2 85/1/2 105/1/2
f 86/3/2 87/3/2 106/3/2
f 105/2/2 86/2/2 106/2/2
f 87/1/2 88/1/2 107/1/2
f 106/3/2 87/3/2 107/3/2
f 88/2/2 89/2/2 108/2/2
f 107/1/2 88/1/2 108/1/2
f 89/3/2 90/3/2 109/3/2
f 108/2/2 89/2/2 109/2/2
f 90/1/2 91/1/2 110/1/2
f 109/3/2 90/3/2 110/3/2
f 91/2/2 92/2/2 111/2/2
f 110/1/2 91/1/2 111/1/2
f 92/3/2 93/3/2 112/3/2
f 111/2/2 92/2/2 112/2/2
f 93/1/2 94/1/2 113/1/2
f 112/3/2 93/3/2 113/3/2
f 94/2/2 95/2/2 114/2/2
f 113/1/2 94/1/2 114/1/2
f 95/3/2 96/3/2 115/3/2
f 114/2/2 95/2/2 115/2/2
f 115/3/2 96/3/2 116/3/2
f 119/3/3 118/3/3 117/3/3
f 120/3/3 118/3/3 119/3/3
f 123/3/3 122/3/3 121/3/3
f 124/3/3 122/3/3 123/3/3
f 127/3/3 126/3/3 125/3/3
f 128/3/3 126/3/3 127/3/3
f 131/3/3 130/3/3 129/3/3
f 132/3/3 130/3/3 131/3/3
f 135/3/3 134/3/3 133/3/3
f 136/3/3 134/3/3 135/3/3
f 137/3/4 138/3/4 139/3/4
f 139/3/4 138/3/4 140/3/4
f 141/3/4 142/3/4 143/3/4
f 143/3/4 142/3/4 144/3/4
f 145/3/4 146/3/4 147/3/4
f 147/3/4 146/3/4 148/3/4
f 149/3/4 150/3/4 151/3/4
f 151/3/4 150/3/4 152/3/4
f 153/3/4 154/3/4 155/3/4
f 155/3/4 154/3/4 156/3/4
f 161/3/5 158/3/5 157/3/5
f 162/3/5 158/3/5 161/3/5
f 163/3/5 160/3/5 159/3/5
f 164/3/5 160/3/5 163/3/5
f 169/3/5 166/3/5 165/3/5
f 170/3/5 166/3/5 169/3/5
f 171/3/5 168/3/5 167/3/5
f 172/3/5 168/3/5 171/3/5
f 175/3/5 174/3/5 173/3/5
f 176/3/5 174/3/5 175/3/5
f 177/3/5 175/3/5 173/3/5
f 178/3/5 175/3/5 177/3/5
f 179/3/5 175/3/5 178/3/5
f 180/1/5 176/1/5 175/1/5
f 180/3/5 175/3/5 179/3/5
f 181/1/5 176/1/5 180/1/5
f 182/1/5 176/1/5 181/1/5
f 183/1/5 176/1/5 182/1/5
f 184/1/5 178/1/5 177/1/5
f 185/1/5 178/1/5 184/1/5
f 186/1/5 180/1/5 179/1/5
f 187/2/5 181/2/5 180/2/5
f 187/1/5 180/1/5 186/1/5
f 188/2/5 181/2/5 187/2/5
f 189/2/5 183/2/5 182/2/5
f 190/2/5 183/2/5 189/2/5
f 191/2/5 185/2/5 184/2/5
f 192/2/5 185/2/5 191/2/5
f 193/2/5 187/2/5 186/2/5
f 194/3/5 188/3/5 187/3/5
f 194/2/5 187/2/5 193/2/5
f 195/3/5 188/3/5 194/3/5
f 196/3/5 188/3/5 195/3/5
f 197/3/5 190/3/5 189/3/5
f 198/3/5 190/3/5 197/3/5
f 199/3/5 193/3/5 192/3/5
f 199/3/5 192/3/5 191/3/5
f 199/3/5 194/3/5 193/3/5
f 199/3/5 195/3/5 194/3/5
f 200/1/5 198/1/5 197/1/5
f 200/3/5 195/3/5 199/3/5
f 200/1/5 196/1/5 195/1/5
f 200/1/5 197/1/5 196/1/5
f 201/1/5 198/1/5 200/1/5
f 202/3/5 199/3/5 191/3/5
f 203/1/5 200/1/5 199/1/5
f 203/3/5 199/3/5 202/3/5
f 204/2/5 201/2/5 200/2/5
f 204/1/5 200/1/5 203/1/5
f 205/2/5 201/2/5 204/2/5
f 206/1/5 203/1/5 202/1/5
f 207/2/5 204/2/5 203/2/5
f 207/1/5 203/1/5 206/1/5
f 208/3/5 205/3/5 204/3/5
f 208/2/5 204/2/5 207/2/5
f 209/2/5 207/2/5 206/2/5
f 210/3/5 208/3/5 207/3/5
f 210/2/5 207/2/5 209/2/5
f 211/3/5 205/3/5 208/3/5
f 211/3/5 208/3/5 210/3/5
f 212/3/5 205/3/5 211/3/5
f 213/3/5 210/3/5 209/3/5
f 213/3/5 211/3/5 210/3/5
f 214/1/5 212/1/5 211/1/5
f 214/3/5 211/3/5 213/3/5
f 215/1/5 212/1/5 214/1/5
f 216/3/5 213/3/5 209/3/5
f 217/1/5 214/1/5 213/1/5
f 217/3/5 213/3/5 216/3/5
f 218/2/5 215/2/5 214/2/5
f 218/1/5 214/1/5 217/1/5
f 219/2/5 215/2/5 218/2/5
f 220/1/5 217/1/5 216/1/5
f 221/2/5 218/2/5 217/2/5
f 221/1/5 217/1/5 220/1/5
f 222/3/5 219/3/5 218/3/5
f 222/2/5 218/2/5 221/2/5
f 223/2/5 221/2/5 220/2/5
f 224/3/5 222/3/5 221/3/5
f 224/2/5 221/2/5 223/2/5
f 225/3/5 219/3/5 222/3/5
f 225/3/5 222/3/5 224/3/5
f 226/3/5 219/3/5 225/3/5
f 227/3/5 224/3/5 223/3/5
f 227/3/5 225/3/5 224/3/5
f 228/1/5 226/1/5 225/1/5
f 228/3/5 225/3/5 227/3/5
f 229/1/5 226/1/5 228/1/5
f 230/3/5 227/3/5 223/3/5
f 231/1/5 228/1/5 227/1/5
f 231/3/5 227/3/5 230/3/5
f 232/2/5 229/2/5 228/2/5
f 232/1/5 228/1/5 231/1/5
f 233/2/5 229/2/5 232/2/5
f 234/1/5 231/1/5 230/1/5
f 235/2/5 232/2/5 231/2/5
f 235/1/5 231/1/5 234/1/5
f 236/3/5 233/3/5 232/3/5
f 236/2/5 232/2/5 235/2/5
f 237/2/5 235/2/5 234/2/5
f 238/3/5 236/3/5 235/3/5
f 238/2/5 235/2/5 237/2/5
f 239/3/5 238/3/5 237/3/5
f 239/3/5 236/3/5 238/3/5
f 240/3/5 233/3/5 236/3/5
f 240/3/5 236/3/5 239/3/5
f 241/3/5 239/3/5 237/3/5
f 242/1/5 240/1/5 239/1/5
f 242/3/5 239/3/5 241/3/5
f 243/1/5 240/1/5 242/1/5
f 244/1/5 242/1/5 241/1/5
f 245/2/5 243/2/5 242/2/5
f 245/1/5 242/1/5 244/1/5
f 246/2/5 243/2/5 245/2/5
f 247/2/5 245/2/5 244/2/5
f 248/2/5 245/2/5 247/2/5
f 249/2/5 245/2/5 248/2/5
f 250/3/5 246/3/5 245/3/5
f 250/2/5 245/2/5 249/2/5
f 251/3/5 246/3/5 250/3/5
f 252/3/5 246/3/5 251/3/5
f 253/3/5 246/3/5 252/3/5
f 254/3/5 246/3/5 253/3/5
f 255/3/5 250/3/5 249/3/5
f 255/3/5 251/3/5 250/3/5
f 256/1/5 252/1/5 251/1/5
f 256/3/5 251/3/5 255/3/5
f 257/1/5 252/1/5 256/1/5
f 258/1/5 254/1/5 253/1/5
f 259/1/5 254/1/5 258/1/5
f 260/3/5 248/3/5 247/3/5
f 261/3/5 248/3/5 260/3/5
f 262/3/5 255/3/5 249/3/5
f 263/1/5 256/1/5 255/1/5
f 263/3/5 255/3/5 262/3/5
f 264/2/5 257/2/5 256/2/5
f 264/1/5 256/1/5 263/1/5
f 265/2/5 257/2/5 264/2/5
f 266/2/5 259/2/5 258/2/5
f 267/2/5 259/2/5 266/2/5
f 268/2/5 263/2/5 262/2/5
f 268/2/5 261/2/5 260/2/5
f 268/2/5 262/2/5 261/2/5
f 268/2/5 264/2/5 263/2/5
f 269/3/5 267/3/5 266/3/5
f 269/2/5 264/2/5 268/2/5
f 269/3/5 266/3/5 265/3/5
f 269/3/5 265/3/5 264/3/5
f 270/3/5 269/3/5 268/3/5
f 271/3/5 267/3/5 269/3/5
f 271/3/5 269/3/5 270/3/5
f 272/3/6 273/3/6 274/3/6
f 274/3/6 273/3/6 275/3/6
f 272/3/6 274/3/6 276/3/6
f 274/1/6 275/1/6 277/1/6
f 276/3/6 274/3/6 277/3/6
f 277/1/6 275/1/6 278/1/6
f 276/1/6 277/1/6 279/1/6
f 277/2/6 278/2/6 280/2/6
f 279/1/6 277/1/6 280/1/6
f 280/2/6 278/2/6 281/2/6
f 279/2/6 280/2/6 282/2/6
f 280/3/6 281/3/6 283/3/6
f 282/2/6 280/2/6 283/2/6
f 283/3/6 281/3/6 284/3/6
f 284/3/6 281/3/6 285/3/6
f 282/3/6 283/3/6 286/3/6
f 283/3/6 284/3/6 286/3/6
f 284/1/6 285/1/6 287/1/6
f 286/3/6 284/3/6 287/3/6
f 287/1/6 285/1/6 288/1/6
f 282/3/6 286/3/6 289/3/6
f 286/1/6 287/1/6 290/1/6
f 289/3/6 286/3/6 290/3/6
f 287/2/6 288/2/6 291/2/6
f 290/1/6 287/1/6 291/1/6
f 291/2/6 288/2/6 292/2/6
f 289/1/6 290/1/6 293/1/6
f 290/2/6 291/2/6 294/2/6
f 293/1/6 290/1/6 294/1/6
f 291/3/6 292/3/6 295/3/6
f 294/2/6 291/2/6 295/2/6
f 293/2/6 294/2/6 296/2/6
f 294/3/6 295/3/6 297/3/6
f 296/2/6 294/2/6 297/2/6
f 295/3/6 292/3/6 298/3/6
f 297/3/6 295/3/6 298/3/6
f 298/3/6 292/3/6 299/3/6
f 296/3/6 297/3/6 300/3/6
f 297/3/6 298/3/6 300/3/6
f 298/1/6 299/1/6 301/1/6
f 300/3/6 298/3/6 301/3/6
f 301/1/6 299/1/6 302/1/6
f 296/3/6 300/3/6 303/3/6
f 300/1/6 301/1/6 304/1/6
f 303/3/6 300/3/6 304/3/6
f 301/2/6 302/2/6 305/2/6
f 304/1/6 301/1/6 305/1/6
f 305/2/6 302/2/6 306/2/6
f 303/1/6 304/1/6 307/1/6
f 304/2/6 305/2/6 308/2/6
f 307/1/6 304/1/6 308/1/6
f 305/3/6 306/3/6 309/3/6
f 308/2/6 305/2/6 309/2/6
f 307/2/6 308/2/6 310/2/6
f 308/3/6 309/3/6 311/3/6
f 310/2/6 308/2/6 311/2/6
f 309/3/6 306/3/6 312/3/6
f 311/3/6 309/3/6 312/3/6
f 312/3/6 306/3/6 313/3/6
f 310/3/6 311/3/6 314/3/6
f 311/3/6 312/3/6 314/3/6
f 312/1/6 313/1/6 315/1/6
f 314/3/6 312/3/6 315/3/6
f 315/1/6 313/1/6 316/1/6
f 310/3/6 314/3/6 317/3/6
f 314/1/6 315/1/6 318/1/6
f 317/3/6 314/3/6 318/3/6
f 315/2/6 316/2/6 319/2/6
f 318/1/6 315/1/6 319/1/6
f 319/2/6 316/2/6 320/2/6
f 317/1/6 318/1/6 321/1/6
f 318/2/6 319/2/6 322/2/6
f 321/1/6 318/1/6 322/1/6
f 319/3/6 320/3/6 323/3/6
f 322/2/6 319/2/6 323/2/6
f 321/2/6 322/2/6 324/2/6
f 322/3/6 323/3/6 325/3/6
f 324/2/6 322/2/6 325/2/6
f 324/3/6 325/3/6 326/3/6
f 325/3/6 323/3/6 326/3/6
f 323/3/6 320/3/6 327/3/6
f 326/3/6 323/3/6 327/3/6
f 324/3/6 326/3/6 328/3/6
f 326/1/6 327/1/6 329/1/6
f 328/3/6 326/3/6 329/3/6
f 329/1/6 327/1/6 330/1/6
f 328/1/6 329/1/6 331/1/6
f 329/2/6 330/2/6 332/2/6
f 331/1/6 329/1/6 332/1/6
f 332/2/6 330/2/6 333/2/6
f 331/2/6 332/2/6 334/2/6
f 332/3/6 333/3/6 335/3/6
f 334/2/6 332/2/6 335/2/6
f 335/3/6 333/3/6 336/3/6
f 336/3/6 333/3/6 337/3/6
f 334/3/6 335/3/6 338/3/6
f 335/3/6 336/3/6 338/3/6
f 336/1/6 337/1/6 339/1/6
f 338/3/6 336/3/6 339/3/6
f 339/1/6 337/1/6 340/1/6
f 334/3/6 338/3/6 341/3/6
f 338/1/6 339/1/6 342/1/6
f 341/3/6 338/3/6 342/3/6
f 339/2/6 340/2/6 343/2/6
f 342/1/6 339/1/6 343/1/6
f 343/2/6 340/2/6 344/2/6
f 341/2/6 342/2/6 345/2/6
f 342/2/6 343/2/6 345/2/6
f 343/3/6 344/3/6 346/3/6
f 345/2/6 343/2/6 346/2/6
f 345/3/6 346/3/6 347/3/6
f 346/3/6 344/3/6 348/3/6
f 347/3/6 346/3/6 348/3/6
