# MagicaVoxel @ Ephtracy

# group
o 

# material
mtllib SwordARPG.mtl
usemtl palette

# normals
vn -1 0 0
vn 1 0 0
vn 0 0 1
vn 0 0 -1
vn 0 -1 0
vn 0 1 0

# texcoords
vt 0.865234 0.5
vt 0.869141 0.5
vt 0.970703 0.5
vt 0.974609 0.5
vt 0.982422 0.5

# verts
v -0.4 1.1 2.23517e-08
v -0.4 1.1 -0.1
v -0.4 1.2 2.23517e-08
v -0.4 1.2 -0.1
v -0.3 1 2.23517e-08
v -0.3 1 -0.1
v -0.3 1.1 2.23517e-08
v -0.3 1.1 -0.1
v -0.2 1.2 2.23517e-08
v -0.2 1.2 -0.1
v -0.2 2.8 2.23517e-08
v -0.2 2.8 -0.1
v -0.2 2.9 2.23517e-08
v -0.2 2.9 -0.1
v -0.1 0.5 2.23517e-08
v -0.1 0.5 -0.1
v -0.1 0.6 2.23517e-08
v -0.1 0.6 -0.1
v -0.1 0.7 2.23517e-08
v -0.1 0.7 -0.1
v -0.1 0.8 2.23517e-08
v -0.1 0.8 -0.1
v -0.1 0.9 2.23517e-08
v -0.1 0.9 -0.1
v -0.1 1 2.23517e-08
v -0.1 1 -0.1
v -0.1 2.8 2.23517e-08
v -0.1 2.8 -0.1
v -0.1 2.9 2.23517e-08
v -0.1 2.9 -0.1
v 0 0.5 2.23517e-08
v 0 0.5 -0.1
v 0 0.6 2.23517e-08
v 0 0.6 -0.1
v 0 0.7 2.23517e-08
v 0 0.7 -0.1
v 0 0.8 2.23517e-08
v 0 0.8 -0.1
v 0 0.9 2.23517e-08
v 0 0.9 -0.1
v 0 1 2.23517e-08
v 0 1 -0.1
v 0 2.7 2.23517e-08
v 0 2.7 -0.1
v 0 2.8 2.23517e-08
v 0 2.8 -0.1
v 0.1 1.2 2.23517e-08
v 0.1 1.2 -0.1
v 0.1 2.7 2.23517e-08
v 0.1 2.7 -0.1
v 0.2 1 2.23517e-08
v 0.2 1 -0.1
v 0.2 1.1 2.23517e-08
v 0.2 1.1 -0.1
v 0.3 1.1 2.23517e-08
v 0.3 1.1 -0.1
v 0.3 1.2 2.23517e-08
v 0.3 1.2 -0.1
v -0.4 1.1 2.23517e-08
v -0.4 1.2 2.23517e-08
v -0.3 1 2.23517e-08
v -0.3 1.1 2.23517e-08
v -0.2 1.2 2.23517e-08
v -0.2 2.8 2.23517e-08
v -0.2 2.9 2.23517e-08
v -0.1 0.5 2.23517e-08
v -0.1 0.6 2.23517e-08
v -0.1 0.7 2.23517e-08
v -0.1 0.8 2.23517e-08
v -0.1 0.9 2.23517e-08
v -0.1 1 2.23517e-08
v -0.1 2.7 2.23517e-08
v -0.1 2.8 2.23517e-08
v -0.1 2.9 2.23517e-08
v 0 0.5 2.23517e-08
v 0 0.6 2.23517e-08
v 0 0.7 2.23517e-08
v 0 0.8 2.23517e-08
v 0 0.9 2.23517e-08
v 0 1 2.23517e-08
v 0 1.2 2.23517e-08
v 0 2.7 2.23517e-08
v 0 2.8 2.23517e-08
v 0.1 1.2 2.23517e-08
v 0.1 2.7 2.23517e-08
v 0.2 1 2.23517e-08
v 0.2 1.1 2.23517e-08
v 0.3 1.1 2.23517e-08
v 0.3 1.2 2.23517e-08
v -0.4 1.1 -0.1
v -0.4 1.2 -0.1
v -0.3 1 -0.1
v -0.3 1.1 -0.1
v -0.2 1.2 -0.1
v -0.2 2.8 -0.1
v -0.2 2.9 -0.1
v -0.1 0.5 -0.1
v -0.1 0.6 -0.1
v -0.1 0.7 -0.1
v -0.1 0.8 -0.1
v -0.1 0.9 -0.1
v -0.1 1 -0.1
v -0.1 2.7 -0.1
v -0.1 2.8 -0.1
v -0.1 2.9 -0.1
v 0 0.5 -0.1
v 0 0.6 -0.1
v 0 0.7 -0.1
v 0 0.8 -0.1
v 0 0.9 -0.1
v 0 1 -0.1
v 0 1.2 -0.1
v 0 2.7 -0.1
v 0 2.8 -0.1
v 0.1 1.2 -0.1
v 0.1 2.7 -0.1
v 0.2 1 -0.1
v 0.2 1.1 -0.1
v 0.3 1.1 -0.1
v 0.3 1.2 -0.1
v -0.1 0.5 2.23517e-08
v 0 0.5 2.23517e-08
v -0.1 0.5 -0.1
v 0 0.5 -0.1
v -0.3 1 2.23517e-08
v -0.1 1 2.23517e-08
v 0 1 2.23517e-08
v 0.2 1 2.23517e-08
v -0.3 1 -0.1
v -0.1 1 -0.1
v 0 1 -0.1
v 0.2 1 -0.1
v -0.4 1.1 2.23517e-08
v -0.3 1.1 2.23517e-08
v 0.2 1.1 2.23517e-08
v 0.3 1.1 2.23517e-08
v -0.4 1.1 -0.1
v -0.3 1.1 -0.1
v 0.2 1.1 -0.1
v 0.3 1.1 -0.1
v -0.4 1.2 2.23517e-08
v -0.2 1.2 2.23517e-08
v 0.1 1.2 2.23517e-08
v 0.3 1.2 2.23517e-08
v -0.4 1.2 -0.1
v -0.2 1.2 -0.1
v 0.1 1.2 -0.1
v 0.3 1.2 -0.1
v 0 2.7 2.23517e-08
v 0.1 2.7 2.23517e-08
v 0 2.7 -0.1
v 0.1 2.7 -0.1
v -0.1 2.8 2.23517e-08
v 0 2.8 2.23517e-08
v -0.1 2.8 -0.1
v 0 2.8 -0.1
v -0.2 2.9 2.23517e-08
v -0.1 2.9 2.23517e-08
v -0.2 2.9 -0.1
v -0.1 2.9 -0.1

# faces
f 3/5/1 2/5/1 1/5/1
f 4/5/1 2/5/1 3/5/1
f 7/5/1 6/5/1 5/5/1
f 8/5/1 6/5/1 7/5/1
f 11/4/1 10/4/1 9/4/1
f 12/4/1 10/4/1 11/4/1
f 13/3/1 12/3/1 11/3/1
f 14/3/1 12/3/1 13/3/1
f 17/5/1 16/5/1 15/5/1
f 18/5/1 16/5/1 17/5/1
f 19/1/1 18/1/1 17/1/1
f 20/1/1 18/1/1 19/1/1
f 21/2/1 20/2/1 19/2/1
f 22/2/1 20/2/1 21/2/1
f 23/1/1 22/1/1 21/1/1
f 24/1/1 22/1/1 23/1/1
f 25/2/1 24/2/1 23/2/1
f 26/2/1 24/2/1 25/2/1
f 27/3/2 28/3/2 29/3/2
f 29/3/2 28/3/2 30/3/2
f 31/5/2 32/5/2 33/5/2
f 33/5/2 32/5/2 34/5/2
f 33/1/2 34/1/2 35/1/2
f 35/1/2 34/1/2 36/1/2
f 35/2/2 36/2/2 37/2/2
f 37/2/2 36/2/2 38/2/2
f 37/1/2 38/1/2 39/1/2
f 39/1/2 38/1/2 40/1/2
f 39/2/2 40/2/2 41/2/2
f 41/2/2 40/2/2 42/2/2
f 43/3/2 44/3/2 45/3/2
f 45/3/2 44/3/2 46/3/2
f 47/3/2 48/3/2 49/3/2
f 49/3/2 48/3/2 50/3/2
f 51/5/2 52/5/2 53/5/2
f 53/5/2 52/5/2 54/5/2
f 55/5/2 56/5/2 57/5/2
f 57/5/2 56/5/2 58/5/2
f 62/5/3 60/5/3 59/5/3
f 63/5/3 60/5/3 62/5/3
f 63/5/3 62/5/3 61/5/3
f 71/5/3 63/5/3 61/5/3
f 72/4/3 64/4/3 63/4/3
f 73/3/3 65/3/3 64/3/3
f 73/4/3 64/4/3 72/4/3
f 74/3/3 65/3/3 73/3/3
f 75/5/3 67/5/3 66/5/3
f 76/1/3 68/1/3 67/1/3
f 76/5/3 67/5/3 75/5/3
f 77/2/3 69/2/3 68/2/3
f 77/1/3 68/1/3 76/1/3
f 78/1/3 70/1/3 69/1/3
f 78/2/3 69/2/3 77/2/3
f 79/2/3 71/2/3 70/2/3
f 79/1/3 70/1/3 78/1/3
f 80/5/3 63/5/3 71/5/3
f 80/2/3 71/2/3 79/2/3
f 81/4/3 72/4/3 63/4/3
f 81/5/3 63/5/3 80/5/3
f 82/3/3 73/3/3 72/3/3
f 82/4/3 72/4/3 81/4/3
f 83/3/3 73/3/3 82/3/3
f 84/3/3 82/3/3 81/3/3
f 84/5/3 81/5/3 80/5/3
f 85/3/3 82/3/3 84/3/3
f 86/5/3 84/5/3 80/5/3
f 87/5/3 84/5/3 86/5/3
f 88/5/3 84/5/3 87/5/3
f 89/5/3 84/5/3 88/5/3
f 90/5/4 91/5/4 93/5/4
f 93/5/4 91/5/4 94/5/4
f 92/5/4 93/5/4 94/5/4
f 92/5/4 94/5/4 102/5/4
f 94/4/4 95/4/4 103/4/4
f 95/3/4 96/3/4 104/3/4
f 103/4/4 95/4/4 104/4/4
f 104/3/4 96/3/4 105/3/4
f 97/5/4 98/5/4 106/5/4
f 98/1/4 99/1/4 107/1/4
f 106/5/4 98/5/4 107/5/4
f 99/2/4 100/2/4 108/2/4
f 107/1/4 99/1/4 108/1/4
f 100/1/4 101/1/4 109/1/4
f 108/2/4 100/2/4 109/2/4
f 101/2/4 102/2/4 110/2/4
f 109/1/4 101/1/4 110/1/4
f 102/5/4 94/5/4 111/5/4
f 110/2/4 102/2/4 111/2/4
f 94/4/4 103/4/4 112/4/4
f 111/5/4 94/5/4 112/5/4
f 103/3/4 104/3/4 113/3/4
f 112/4/4 103/4/4 113/4/4
f 113/3/4 104/3/4 114/3/4
f 112/3/4 113/3/4 115/3/4
f 111/5/4 112/5/4 115/5/4
f 115/3/4 113/3/4 116/3/4
f 111/5/4 115/5/4 117/5/4
f 117/5/4 115/5/4 118/5/4
f 118/5/4 115/5/4 119/5/4
f 119/5/4 115/5/4 120/5/4
f 123/5/5 122/5/5 121/5/5
f 124/5/5 122/5/5 123/5/5
f 129/5/5 126/5/5 125/5/5
f 130/5/5 126/5/5 129/5/5
f 131/5/5 128/5/5 127/5/5
f 132/5/5 128/5/5 131/5/5
f 137/5/5 134/5/5 133/5/5
f 138/5/5 134/5/5 137/5/5
f 139/5/5 136/5/5 135/5/5
f 140/5/5 136/5/5 139/5/5
f 141/5/6 142/5/6 145/5/6
f 145/5/6 142/5/6 146/5/6
f 143/5/6 144/5/6 147/5/6
f 147/5/6 144/5/6 148/5/6
f 149/3/6 150/3/6 151/3/6
f 151/3/6 150/3/6 152/3/6
f 153/3/6 154/3/6 155/3/6
f 155/3/6 154/3/6 156/3/6
f 157/3/6 158/3/6 159/3/6
f 159/3/6 158/3/6 160/3/6
